<svg aria-hidden="true" style="position: absolute; width: 0; height: 0; overflow: hidden;" version="1.1" xmlns="http://www.w3.org/2000/svg" xmlns:xlink="http://www.w3.org/1999/xlink">
<defs>
<symbol id="check-circle" viewBox="0 0 30 32">
<path d="M15.238 29.333c-3.536 0-6.928-1.405-9.428-3.905s-3.905-5.892-3.905-9.428c0-3.536 1.405-6.928 3.905-9.428s5.892-3.905 9.428-3.905c3.536 0 6.928 1.405 9.428 3.905s3.905 5.892 3.905 9.428c0 3.536-1.405 6.928-3.905 9.428s-5.892 3.905-9.428 3.905zM15.238 31.238c4.041 0 7.917-1.605 10.775-4.463s4.463-6.734 4.463-10.775c0-4.041-1.605-7.917-4.463-10.775s-6.734-4.463-10.775-4.463c-4.041 0-7.917 1.605-10.775 4.463s-4.463 6.734-4.463 10.775c0 4.041 1.605 7.917 4.463 10.775s6.734 4.463 10.775 4.463z"></path>
<path d="M20.895 10.229c-0.014 0.013-0.026 0.027-0.038 0.042l-6.615 8.428-3.987-3.989c-0.271-0.252-0.629-0.39-0.999-0.383s-0.723 0.156-0.985 0.418c-0.262 0.262-0.412 0.615-0.418 0.985s0.131 0.728 0.383 0.999l5.040 5.042c0.136 0.135 0.297 0.242 0.475 0.314s0.368 0.107 0.56 0.103c0.192-0.003 0.381-0.046 0.556-0.124s0.333-0.191 0.463-0.331l7.604-9.505c0.259-0.272 0.4-0.634 0.394-1.010s-0.16-0.733-0.428-0.996c-0.268-0.263-0.629-0.409-1.004-0.408s-0.735 0.15-1.002 0.414z"></path>
</symbol>
<symbol id="pencil" viewBox="0 0 30 32">
<path d="M29.528 4.457c0.178 0.179 0.278 0.42 0.278 0.672s-0.1 0.494-0.278 0.672l-1.987 1.989-3.81-3.81 1.987-1.989c0.179-0.179 0.421-0.279 0.673-0.279s0.495 0.1 0.673 0.279l2.463 2.465zM26.194 9.135l-3.81-3.81-12.977 12.979c-0.105 0.105-0.184 0.233-0.23 0.373l-1.533 4.598c-0.028 0.084-0.032 0.174-0.011 0.26s0.064 0.165 0.127 0.227c0.062 0.062 0.141 0.106 0.227 0.127s0.176 0.016 0.26-0.011l4.598-1.533c0.14-0.046 0.268-0.125 0.373-0.229l12.977-12.981z"></path>
<path d="M1.905 26.476c0 0.758 0.301 1.485 0.837 2.020s1.263 0.837 2.020 0.837h20.952c0.758 0 1.485-0.301 2.020-0.837s0.837-1.262 0.837-2.020v-11.429c0-0.253-0.1-0.495-0.279-0.673s-0.421-0.279-0.673-0.279-0.495 0.1-0.673 0.279c-0.179 0.179-0.279 0.421-0.279 0.673v11.429c0 0.253-0.1 0.495-0.279 0.673s-0.421 0.279-0.673 0.279h-20.952c-0.253 0-0.495-0.1-0.673-0.279s-0.279-0.421-0.279-0.673v-20.952c0-0.253 0.1-0.495 0.279-0.673s0.421-0.279 0.673-0.279h12.381c0.253 0 0.495-0.1 0.673-0.279s0.279-0.421 0.279-0.673-0.1-0.495-0.279-0.673c-0.179-0.179-0.421-0.279-0.673-0.279h-12.381c-0.758 0-1.484 0.301-2.020 0.837s-0.837 1.263-0.837 2.020v20.952z"></path>
</symbol>
<symbol id="trash" viewBox="0 0 30 32">
<path d="M10.476 11.238c0.253 0 0.495 0.1 0.673 0.279s0.279 0.421 0.279 0.673v11.429c0 0.253-0.1 0.495-0.279 0.673s-0.421 0.279-0.673 0.279-0.495-0.1-0.673-0.279c-0.179-0.179-0.279-0.421-0.279-0.673v-11.429c0-0.253 0.1-0.495 0.279-0.673s0.421-0.279 0.673-0.279zM15.238 11.238c0.253 0 0.495 0.1 0.673 0.279s0.279 0.421 0.279 0.673v11.429c0 0.253-0.1 0.495-0.279 0.673s-0.421 0.279-0.673 0.279c-0.253 0-0.495-0.1-0.673-0.279s-0.279-0.421-0.279-0.673v-11.429c0-0.253 0.1-0.495 0.279-0.673s0.421-0.279 0.673-0.279zM20.952 12.19c0-0.253-0.1-0.495-0.279-0.673s-0.421-0.279-0.673-0.279-0.495 0.1-0.673 0.279c-0.179 0.179-0.279 0.421-0.279 0.673v11.429c0 0.253 0.1 0.495 0.279 0.673s0.421 0.279 0.673 0.279 0.495-0.1 0.673-0.279c0.179-0.179 0.279-0.421 0.279-0.673v-11.429z"></path>
<path d="M27.619 6.476c0 0.505-0.201 0.99-0.558 1.347s-0.842 0.558-1.347 0.558h-0.952v17.143c0 1.010-0.401 1.979-1.116 2.694s-1.683 1.116-2.694 1.116h-11.429c-1.010 0-1.979-0.401-2.694-1.116s-1.116-1.683-1.116-2.694v-17.143h-0.952c-0.505 0-0.99-0.201-1.347-0.558s-0.558-0.842-0.558-1.347v-1.905c0-0.505 0.201-0.99 0.558-1.347s0.842-0.558 1.347-0.558h6.667c0-0.505 0.201-0.99 0.558-1.347s0.842-0.558 1.347-0.558h3.81c0.505 0 0.99 0.201 1.347 0.558s0.558 0.842 0.558 1.347h6.667c0.505 0 0.99 0.201 1.347 0.558s0.558 0.842 0.558 1.347v1.905zM7.844 8.381l-0.225 0.112v17.030c0 0.505 0.201 0.99 0.558 1.347s0.842 0.558 1.347 0.558h11.429c0.505 0 0.99-0.201 1.347-0.558s0.558-0.842 0.558-1.347v-17.030l-0.225-0.112h-14.789zM4.762 6.476v-1.905h20.952v1.905h-20.952z"></path>
</symbol>
</defs>
</svg>
